<svg xmlns="http://www.w3.org/2000/svg" viewBox="0 0 512 512"><path fill="#EFEFEF" d="M459.4 151.7c.3 4.5 .3 9.1 .3 13.6 0 138.7-105.6 298.5-298.5 298.5-59.5 0-114.7-17.2-161.1-47 8.4 1 16.8 1.3 25.6 1.3 49.1 0 94.2-16.6 130.1-44.8-46-1-84.8-31.2-98.1-72.8 6.5 1 13.1 1.6 20 1.6 9.6 0 19-1.3 27.9-3.7-48.1-9.7-84.3-52.1-84.3-103v-1.3c14.3 7.9 30.8 12.7 48.3 13.3-28.6-19.1-47.3-51.7-47.3-88.6 0-19.5 5.2-37.7 14.3-53.4 52.1 63.9 130.3 105.9 218.3 110.4-1.6-7.8-2.6-15.9-2.6-24.1 0-58.5 47.4-105.9 105.9-105.9 30.5 0 58.1 12.9 77.4 33.5 24.1-4.7 46.8-13.5 67.2-25.6-7.9 24.6-24.6 45.2-46.3 58.2 21.4-2.6 41.8-8.2 60.7-16.6-14.3 21.1-32.2 39.7-52.8 54.6z"/></svg>